<svg width="258" height="48" viewBox="0 0 258 48" fill="none" xmlns="http://www.w3.org/2000/svg">
<g clip-path="url(#clip0_3560_47350)">
<path d="M65.0089 30.9315C64.6406 32.0077 64.0644 33.0021 63.3126 33.8589C62.5101 34.7541 61.5227 35.4669 60.4178 35.9484C59.1023 36.5177 57.6773 36.7933 56.243 36.756C55.6234 36.756 55.0343 36.756 54.4959 36.756C53.8246 36.6979 53.1629 36.5589 52.5254 36.3421V31.8804C53.0821 32.0095 53.6503 32.0838 54.2217 32.1025C54.7905 32.1025 55.3289 32.1025 55.8164 32.1025C56.4744 32.1534 57.1358 32.0655 57.7573 31.8446C58.3787 31.6236 58.9461 31.2746 59.4223 30.8205C60.262 29.8262 60.6937 28.5538 60.6311 27.2572V0.587891H65.5371V27.5903C65.5489 28.7255 65.3704 29.8546 65.0089 30.9315Z" fill="white"/>
<path d="M107.914 18.3841C107.933 20.87 107.439 23.3334 106.462 25.6218C105.533 27.7923 104.199 29.7686 102.531 31.4462C100.837 33.1392 98.8221 34.4804 96.6022 35.392C94.3823 36.3035 92.0021 36.7672 89.6002 36.7559C87.1318 36.7596 84.6873 36.2758 82.4087 35.3326C80.2216 34.4411 78.2282 33.1387 76.5376 31.4967C74.8451 29.8388 73.508 27.8575 72.6067 25.6723C71.6412 23.3141 71.1578 20.7885 71.1847 18.2428C71.1607 15.7643 71.6266 13.3053 72.5559 11.0052C73.4327 8.84215 74.7267 6.87041 76.365 5.2009C78.0088 3.54696 79.9709 2.23897 82.1344 1.35495C84.4355 0.423231 86.9024 -0.0368549 89.3869 0.00230544C91.9853 -0.0307923 94.5645 0.44958 96.9745 1.41552C99.1698 2.3023 101.158 3.62862 102.815 5.31194C104.453 6.9973 105.74 8.98675 106.604 11.1667C107.498 13.4678 107.943 15.9174 107.914 18.3841ZM102.835 18.1822C102.844 16.354 102.499 14.5412 101.82 12.8423C101.203 11.2593 100.27 9.81702 99.0771 8.6027C97.8624 7.39538 96.4147 6.44432 94.8211 5.80656C93.0993 5.11256 91.2548 4.7693 89.397 4.79712C87.5722 4.77011 85.761 5.1136 84.0745 5.80656C82.5114 6.44556 81.0972 7.39734 79.9201 8.6027C78.7541 9.83632 77.8461 11.2877 77.2487 12.8726C76.5975 14.6022 76.2738 16.4366 76.2939 18.2832C76.2706 20.1025 76.6126 21.9081 77.2997 23.5946C77.9869 25.281 79.0055 26.8144 80.2959 28.105C81.5119 29.3187 82.954 30.2856 84.5417 30.9516C86.1466 31.6321 87.8757 31.9758 89.6205 31.961C91.3596 31.9779 93.0851 31.6555 94.6992 31.0122C96.2448 30.3803 97.6471 29.4466 98.8232 28.2665C100.067 27.0218 101.054 25.5473 101.728 23.9259C102.47 22.0986 102.836 20.1422 102.805 18.1721L102.835 18.1822Z" fill="white"/>
<path d="M133.195 36.17L118.71 19.5446V36.17H113.764V0.587387H125.343C126.897 0.563092 128.44 0.844402 129.884 1.41512C131.193 1.93768 132.386 2.70918 133.398 3.68635C134.393 4.64109 135.176 5.79324 135.694 7.06796C136.223 8.34893 136.492 9.72109 136.486 11.1057C136.5 12.4952 136.216 13.8717 135.653 15.1434C135.115 16.3583 134.346 17.4585 133.388 18.3837C132.452 19.3087 131.344 20.0456 130.127 20.554C128.908 21.0732 127.594 21.3378 126.268 21.3313L139.472 36.2507L133.195 36.17ZM131.377 10.9341C131.365 10.2739 131.224 9.62226 130.96 9.01617C130.664 8.32918 130.229 7.71053 129.68 7.19919C129.057 6.61678 128.335 6.14859 127.547 5.81626C126.581 5.42321 125.544 5.23414 124.5 5.26107H118.71V17.4046H124.409C125.346 17.4646 126.286 17.3344 127.172 17.0221C128.057 16.7097 128.869 16.2217 129.559 15.5876C130.165 14.9678 130.639 14.2323 130.951 13.4256C131.264 12.6189 131.408 11.7576 131.377 10.8937V10.9341Z" fill="white"/>
<path d="M168.006 36.1705L149.204 10.3895C149.127 10.3061 149.059 10.2147 149.001 10.117C148.94 10.0059 148.869 9.89489 148.808 9.80404C148.712 9.68222 148.631 9.55018 148.564 9.41036C148.559 9.55678 148.576 9.70319 148.615 9.84441C148.605 9.97545 148.605 10.1071 148.615 10.2381C148.624 10.3523 148.624 10.4671 148.615 10.5813V36.1705H143.709V0.587891H147.884L166.482 25.8843L166.706 26.2276L166.919 26.5708C166.98 26.689 167.048 26.8036 167.122 26.914C167.092 26.7677 167.075 26.6191 167.071 26.4698C167.05 26.228 167.05 25.9848 167.071 25.743V0.587891H171.977V36.1705H168.006Z" fill="white"/>
<path d="M195.166 20.0397L191.428 10.0968C191.367 9.99805 191.326 9.88831 191.307 9.77375C191.294 9.6673 191.27 9.56244 191.235 9.46083C191.21 9.34401 191.177 9.22927 191.134 9.11762C191.134 9.21856 191.073 9.3296 191.042 9.46083C191.008 9.56244 190.984 9.6673 190.971 9.77375C190.956 9.86769 190.929 9.95929 190.89 10.0463L187.162 20.0397L185.446 24.673L181.119 36.1705H175.918L189.661 0.587891H192.81L206.655 36.1705H201.2L196.883 24.673L195.166 20.0397Z" fill="#F3BD48"/>
<path d="M219.087 19.646V36.1705H214.181V19.646L201.85 0.587891H207.548L216.192 13.8923C216.266 13.9794 216.324 14.0784 216.365 14.185C216.404 14.3056 216.459 14.4209 216.527 14.5282L216.73 14.9219L216.923 14.5282C216.998 14.4178 217.065 14.3032 217.126 14.185C217.18 14.0651 217.245 13.9502 217.319 13.8418L225.963 0.587891H231.591L219.087 19.646Z" fill="white"/>
<path d="M246.513 20.0397L242.765 10.0968C242.695 10.0023 242.653 9.89053 242.643 9.77375C242.622 9.668 242.595 9.56352 242.562 9.46083C242.562 9.3296 242.501 9.21856 242.47 9.11762C242.428 9.22927 242.394 9.34401 242.369 9.46083C242.334 9.56244 242.31 9.6673 242.298 9.77375C242.287 9.86871 242.26 9.96102 242.216 10.0463L238.488 20.0397L236.772 24.673L232.455 36.1705H227.244L241.018 0.587891H244.156L258.001 36.1705H252.546L248.229 24.673L246.513 20.0397Z" fill="#F3BD48"/>
<path d="M16.5973 37.5416V36.8653V21.855L5.12953 37.5416H0L17.3693 13.2344H21.1072V13.9208V28.6182L32.4125 13.2344H36.4755V28.7191L32.0976 34.7152V21.3401L20.3657 37.269L20.1626 37.5416H16.5973Z" fill="#F3BD48"/>
<path d="M26.2773 47.9993L51.8336 13.2344H57.2577L32.1788 47.9993H26.2773Z" fill="#F3BD48"/>
</g>
<defs>
<clipPath id="clip0_3560_47350">
<rect width="258" height="48" fill="white"/>
</clipPath>
</defs>
</svg>
